<svg width="284" height="73" viewBox="0 0 284 73" fill="none" xmlns="http://www.w3.org/2000/svg">
<path d="M17.267 44C15.8163 44.8533 14.5363 44.96 13.427 44.32C12.3177 43.68 11.763 42.5067 11.763 40.8V60L6.195 63.2V15.84L25.587 4.64C27.0377 3.78666 28.3177 3.68 29.427 4.32C30.579 4.96 31.155 6.13333 31.155 7.84V29.6C31.155 30.7093 30.8777 31.904 30.323 33.184C29.811 34.464 29.1283 35.6587 28.275 36.768C27.4643 37.8347 26.5683 38.6453 25.587 39.2L17.267 44ZM25.587 11.04L11.763 19.04V40.8L25.587 32.8V11.04ZM11.763 40.8C11.763 42.5067 12.3177 43.68 13.427 44.32L7.859 41.12C6.74967 40.48 6.195 39.3067 6.195 37.6L11.763 40.8ZM25.587 11.04V32.8L20.019 29.6V7.84L25.587 11.04ZM25.587 32.8L11.763 40.8L6.195 37.6L20.019 29.6L25.587 32.8ZM29.491 4.32C28.339 3.68 27.0377 3.78666 25.587 4.64L6.195 15.84L0.627 12.64L20.019 1.44C21.5123 0.586664 22.8137 0.479997 23.923 1.12L29.491 4.32ZM6.195 15.84V63.2L0.627 60V12.64L6.195 15.84ZM50.5775 52V32.8L42.2575 37.6V31.2L64.4015 18.4V24.8L56.0815 29.6V48.8L64.4015 44V50.4L42.2575 63.2V56.8L50.5775 52ZM53.3295 19.04C52.2202 19.68 51.2815 19.7867 50.5135 19.36C49.7882 18.9333 49.4255 18.08 49.4255 16.8C49.4255 15.52 49.7882 14.24 50.5135 12.96C51.2815 11.68 52.2202 10.72 53.3295 10.08C54.4388 9.44 55.3562 9.33333 56.0815 9.76C56.8495 10.1867 57.2335 11.04 57.2335 12.32C57.2335 13.6 56.8495 14.88 56.0815 16.16C55.3562 17.44 54.4388 18.4 53.3295 19.04ZM50.5775 52L42.2575 56.8L36.6895 53.6L45.0095 48.8L50.5775 52ZM42.2575 56.8V63.2L36.6895 60V53.6L42.2575 56.8ZM64.4015 44L56.0815 48.8L50.5775 45.6L58.8975 40.8L64.4015 44ZM50.5775 32.8V52L45.0095 48.8V29.6L50.5775 32.8ZM64.4015 18.4L42.2575 31.2L36.6895 28L58.8975 15.2L64.4015 18.4ZM42.2575 31.2V37.6L36.6895 34.4V28L42.2575 31.2ZM56.1455 9.76C55.3775 9.33333 54.4388 9.44 53.3295 10.08C52.2202 10.72 51.2815 11.68 50.5135 12.96C49.7882 14.24 49.4255 15.52 49.4255 16.8C49.4255 18.08 49.8095 18.9333 50.5775 19.36L45.0095 16.16C44.2842 15.7333 43.9215 14.88 43.9215 13.6C43.9215 12.32 44.2842 11.04 45.0095 9.76C45.7348 8.48 46.6735 7.52 47.8255 6.88C48.9348 6.24 49.8522 6.13333 50.5775 6.56L56.1455 9.76ZM75.5075 28.64L81.0755 25.44V31.84C81.0755 30.688 81.3315 29.4933 81.8435 28.256C82.3555 26.976 83.0168 25.8027 83.8275 24.736C84.6808 23.6267 85.5982 22.7947 86.5795 22.24L92.1475 19.04C93.5982 18.1867 94.8782 18.08 95.9875 18.72C97.0968 19.36 97.6515 20.5333 97.6515 22.24V50.4L92.1475 53.6V25.44L81.0755 31.84V60L75.5075 63.2V28.64ZM92.1475 25.44V53.6L86.5795 50.4V22.24L92.1475 25.44ZM75.5075 28.64V63.2L69.9395 60V25.44L75.5075 28.64ZM95.9875 18.72C94.8782 18.08 93.5982 18.1867 92.1475 19.04L86.5795 22.24C85.5982 22.7947 84.6808 23.6267 83.8275 24.736C83.0168 25.8027 82.3555 26.976 81.8435 28.256C81.3315 29.4933 81.0755 30.688 81.0755 31.84L75.5075 28.64C75.5075 27.488 75.7635 26.2933 76.2755 25.056C76.7875 23.776 77.4702 22.6027 78.3235 21.536C79.1768 20.4267 80.0942 19.5947 81.0755 19.04L86.5795 15.84C88.0728 14.9867 89.3742 14.88 90.4835 15.52L95.9875 18.72ZM81.0755 25.44L75.5075 28.64L69.9395 25.44L75.5075 22.24L81.0755 25.44ZM114.326 54.24C112.832 55.0933 111.531 55.2 110.422 54.56C109.312 53.92 108.758 52.7467 108.758 51.04V37.6C108.758 36.448 109.014 35.2533 109.526 34.016C110.038 32.736 110.72 31.5627 111.574 30.496C112.427 29.3867 113.344 28.5547 114.326 28L119.83 24.8C121.323 23.9467 122.624 23.84 123.734 24.48C124.843 25.12 125.398 26.2933 125.398 28V21.6L130.902 18.4V52.96C130.902 54.0693 130.646 55.264 130.134 56.544C129.622 57.824 128.939 58.9973 128.086 60.064C127.275 61.1733 126.379 62.0053 125.398 62.56L108.758 72.16V65.76L125.398 56.16V41.44C125.398 42.5493 125.142 43.744 124.63 45.024C124.118 46.304 123.435 47.4987 122.582 48.608C121.728 49.6747 120.811 50.4853 119.83 51.04L114.326 54.24ZM114.326 47.84L125.398 41.44V28L114.326 34.4V47.84ZM125.398 41.44V56.16L119.83 52.96V38.24L125.398 41.44ZM125.398 56.16L108.758 65.76L103.19 62.56L119.83 52.96L125.398 56.16ZM108.758 65.76V72.16L103.19 68.96V62.56L108.758 65.76ZM130.902 18.4L125.398 21.6L119.83 18.4L125.398 15.2L130.902 18.4ZM125.398 21.6V28L119.83 24.8V18.4L125.398 21.6ZM125.398 28V41.44L119.83 38.24V24.8L125.398 28ZM125.398 41.44L114.326 47.84L108.758 44.64L119.83 38.24L125.398 41.44ZM123.734 24.48C122.624 23.84 121.323 23.9467 119.83 24.8L114.326 28C113.344 28.5547 112.427 29.3867 111.574 30.496C110.72 31.5627 110.038 32.736 109.526 34.016C109.014 35.2533 108.758 36.448 108.758 37.6V51.04C108.758 52.7467 109.312 53.92 110.422 54.56L104.854 51.36C103.744 50.72 103.19 49.5467 103.19 47.84V34.4C103.19 33.248 103.446 32.0533 103.958 30.816C104.47 29.536 105.152 28.3627 106.006 27.296C106.859 26.1867 107.776 25.3547 108.758 24.8L114.326 21.6C115.776 20.7467 117.056 20.64 118.166 21.28L123.734 24.48ZM169.705 44C168.254 44.8533 166.974 44.96 165.865 44.32C164.755 43.68 164.201 42.5067 164.201 40.8V60L158.633 63.2V15.84L178.025 4.64C179.475 3.78666 180.755 3.68 181.865 4.32C183.017 4.96 183.593 6.13333 183.593 7.84V29.6C183.593 30.7093 183.315 31.904 182.761 33.184C182.249 34.464 181.566 35.6587 180.713 36.768C179.902 37.8347 179.006 38.6453 178.025 39.2L169.705 44ZM178.025 11.04L164.201 19.04V40.8L178.025 32.8V11.04ZM164.201 40.8C164.201 42.5067 164.755 43.68 165.865 44.32L160.297 41.12C159.187 40.48 158.633 39.3067 158.633 37.6L164.201 40.8ZM178.025 11.04V32.8L172.457 29.6V7.84L178.025 11.04ZM178.025 32.8L164.201 40.8L158.633 37.6L172.457 29.6L178.025 32.8ZM181.929 4.32C180.777 3.68 179.475 3.78666 178.025 4.64L158.633 15.84L153.065 12.64L172.457 1.44C173.95 0.586664 175.251 0.479997 176.361 1.12L181.929 4.32ZM158.633 15.84V63.2L153.065 60V12.64L158.633 15.84ZM194.695 31.2L200.263 28V56.16L211.335 49.76V21.6L216.839 18.4V52.96L211.335 56.16V49.76C211.335 50.8693 211.079 52.064 210.567 53.344C210.055 54.624 209.372 55.8187 208.519 56.928C207.666 57.9947 206.748 58.8053 205.767 59.36L200.263 62.56C198.77 63.4133 197.468 63.52 196.359 62.88C195.25 62.24 194.695 61.0667 194.695 59.36V31.2ZM211.335 49.76V56.16L205.767 52.96V46.56L211.335 49.76ZM216.839 18.4L211.335 21.6L205.767 18.4L211.335 15.2L216.839 18.4ZM211.335 21.6V49.76L205.767 46.56V18.4L211.335 21.6ZM200.263 28L194.695 31.2L189.127 28L194.695 24.8L200.263 28ZM211.335 49.76L200.263 56.16L194.695 52.96L205.767 46.56L211.335 49.76ZM194.695 31.2V59.36C194.695 61.0667 195.25 62.24 196.359 62.88L190.791 59.68C189.682 59.04 189.127 57.8667 189.127 56.16V28L194.695 31.2ZM233.513 47.2C232.02 48.0533 230.718 48.16 229.609 47.52C228.5 46.88 227.945 45.7067 227.945 44V37.6C227.945 36.448 228.201 35.2533 228.713 34.016C229.225 32.736 229.908 31.5627 230.761 30.496C231.614 29.3867 232.532 28.5547 233.513 28L250.089 18.4V24.8L233.513 34.4V40.8L244.585 34.4C246.036 33.5467 247.316 33.44 248.425 34.08C249.534 34.72 250.089 35.8933 250.089 37.6V44C250.089 45.1093 249.833 46.304 249.321 47.584C248.809 48.864 248.126 50.0587 247.273 51.168C246.462 52.2347 245.566 53.0453 244.585 53.6L227.945 63.2V56.8L244.585 47.2V40.8L233.513 47.2ZM244.585 40.8V47.2L239.017 44V37.6L244.585 40.8ZM244.585 47.2L227.945 56.8L222.377 53.6L239.017 44L244.585 47.2ZM227.945 56.8V63.2L222.377 60V53.6L227.945 56.8ZM248.425 34.08C247.316 33.44 246.036 33.5467 244.585 34.4L233.513 40.8L227.945 37.6L239.017 31.2C240.51 30.3467 241.812 30.24 242.921 30.88L248.425 34.08ZM250.089 18.4L233.513 28C232.532 28.5547 231.614 29.3867 230.761 30.496C229.908 31.5627 229.225 32.736 228.713 34.016C228.201 35.2533 227.945 36.448 227.945 37.6V44C227.945 45.7067 228.5 46.88 229.609 47.52L224.041 44.32C222.932 43.68 222.377 42.5067 222.377 40.8V34.4C222.377 33.248 222.633 32.0533 223.145 30.816C223.657 29.536 224.34 28.3627 225.193 27.296C226.046 26.1867 226.964 25.3547 227.945 24.8L244.585 15.2L250.089 18.4ZM272.267 22.24L277.835 19.04C279.286 18.1867 280.566 18.08 281.675 18.72C282.784 19.36 283.339 20.5333 283.339 22.24V50.4L277.835 53.6V25.44L266.763 31.84V60L261.195 63.2V12L266.763 8.8V31.84C266.763 30.688 267.019 29.4933 267.531 28.256C268.043 26.976 268.704 25.8027 269.515 24.736C270.368 23.6267 271.286 22.7947 272.267 22.24ZM277.835 25.44V53.6L272.267 50.4V22.24L277.835 25.44ZM281.675 18.72C280.566 18.08 279.286 18.1867 277.835 19.04L272.267 22.24C271.286 22.7947 270.368 23.6267 269.515 24.736C268.704 25.8027 268.043 26.976 267.531 28.256C267.019 29.4933 266.763 30.688 266.763 31.84L261.195 28.64C261.195 27.488 261.451 26.2933 261.963 25.056C262.475 23.776 263.158 22.6027 264.011 21.536C264.864 20.4267 265.782 19.5947 266.763 19.04L272.267 15.84C273.76 14.9867 275.062 14.88 276.171 15.52L281.675 18.72ZM266.763 8.8L261.195 12L255.627 8.8L261.195 5.6L266.763 8.8ZM261.195 12V63.2L255.627 60V8.8L261.195 12Z" fill="white"/>
</svg>
