<svg width="197" height="254" viewBox="0 0 197 254" fill="none" xmlns="http://www.w3.org/2000/svg">
<path d="M25.7286 66C23.5526 67.28 21.6326 67.44 19.9686 66.48C18.3046 65.52 17.4726 63.76 17.4726 61.2V90L9.12063 94.8V23.76L38.2086 6.95999C40.3846 5.67999 42.3046 5.51999 43.9686 6.47999C45.6966 7.44 46.5606 9.2 46.5606 11.76V44.4C46.5606 46.064 46.1446 47.856 45.3126 49.776C44.5446 51.696 43.5206 53.488 42.2406 55.152C41.0246 56.752 39.6806 57.968 38.2086 58.8L25.7286 66ZM38.2086 16.56L17.4726 28.56V61.2L38.2086 49.2V16.56ZM17.4726 61.2C17.4726 63.76 18.3046 65.52 19.9686 66.48L11.6166 61.68C9.95263 60.72 9.12063 58.96 9.12063 56.4L17.4726 61.2ZM38.2086 16.56V49.2L29.8566 44.4V11.76L38.2086 16.56ZM38.2086 49.2L17.4726 61.2L9.12063 56.4L29.8566 44.4L38.2086 49.2ZM44.0646 6.47999C42.3366 5.51999 40.3846 5.67999 38.2086 6.95999L9.12063 23.76L0.768625 18.96L29.8566 2.16C32.0966 0.879995 34.0486 0.719995 35.7126 1.68L44.0646 6.47999ZM9.12063 23.76V94.8L0.768625 90V18.96L9.12063 23.76ZM75.6944 78V49.2L63.2144 56.4V46.8L96.4304 27.6V37.2L83.9504 44.4V73.2L96.4304 66V75.6L63.2144 94.8V85.2L75.6944 78ZM79.8224 28.56C78.1584 29.52 76.7504 29.68 75.5984 29.04C74.5104 28.4 73.9664 27.12 73.9664 25.2C73.9664 23.28 74.5104 21.36 75.5984 19.44C76.7504 17.52 78.1584 16.08 79.8224 15.12C81.4864 14.16 82.8624 14 83.9504 14.64C85.1024 15.28 85.6784 16.56 85.6784 18.48C85.6784 20.4 85.1024 22.32 83.9504 24.24C82.8624 26.16 81.4864 27.6 79.8224 28.56ZM75.6944 78L63.2144 85.2L54.8624 80.4L67.3424 73.2L75.6944 78ZM63.2144 85.2V94.8L54.8624 90V80.4L63.2144 85.2ZM96.4304 66L83.9504 73.2L75.6944 68.4L88.1744 61.2L96.4304 66ZM75.6944 49.2V78L67.3424 73.2V44.4L75.6944 49.2ZM96.4304 27.6L63.2144 46.8L54.8624 42L88.1744 22.8L96.4304 27.6ZM63.2144 46.8V56.4L54.8624 51.6V42L63.2144 46.8ZM84.0464 14.64C82.8944 14 81.4864 14.16 79.8224 15.12C78.1584 16.08 76.7504 17.52 75.5984 19.44C74.5104 21.36 73.9664 23.28 73.9664 25.2C73.9664 27.12 74.5424 28.4 75.6944 29.04L67.3424 24.24C66.2544 23.6 65.7104 22.32 65.7104 20.4C65.7104 18.48 66.2544 16.56 67.3424 14.64C68.4304 12.72 69.8384 11.28 71.5664 10.32C73.2304 9.36 74.6064 9.2 75.6944 9.84L84.0464 14.64ZM113.089 42.96L121.441 38.16V47.76C121.441 46.032 121.825 44.24 122.593 42.384C123.361 40.464 124.353 38.704 125.569 37.104C126.849 35.44 128.225 34.192 129.697 33.36L138.049 28.56C140.225 27.28 142.145 27.12 143.809 28.08C145.473 29.04 146.305 30.8 146.305 33.36V75.6L138.049 80.4V38.16L121.441 47.76V90L113.089 94.8V42.96ZM138.049 38.16V80.4L129.697 75.6V33.36L138.049 38.16ZM113.089 42.96V94.8L104.737 90V38.16L113.089 42.96ZM143.809 28.08C142.145 27.12 140.225 27.28 138.049 28.56L129.697 33.36C128.225 34.192 126.849 35.44 125.569 37.104C124.353 38.704 123.361 40.464 122.593 42.384C121.825 44.24 121.441 46.032 121.441 47.76L113.089 42.96C113.089 41.232 113.473 39.44 114.241 37.584C115.009 35.664 116.033 33.904 117.313 32.304C118.593 30.64 119.969 29.392 121.441 28.56L129.697 23.76C131.937 22.48 133.889 22.32 135.553 23.28L143.809 28.08ZM121.441 38.16L113.089 42.96L104.737 38.16L113.089 33.36L121.441 38.16ZM171.316 81.36C169.076 82.64 167.124 82.8 165.46 81.84C163.796 80.88 162.964 79.12 162.964 76.56V56.4C162.964 54.672 163.348 52.88 164.116 51.024C164.884 49.104 165.908 47.344 167.188 45.744C168.468 44.08 169.844 42.832 171.316 42L179.572 37.2C181.812 35.92 183.764 35.76 185.428 36.72C187.092 37.68 187.924 39.44 187.924 42V32.4L196.18 27.6V79.44C196.18 81.104 195.796 82.896 195.028 84.816C194.26 86.736 193.236 88.496 191.956 90.096C190.74 91.76 189.396 93.008 187.924 93.84L162.964 108.24V98.64L187.924 84.24V62.16C187.924 63.824 187.54 65.616 186.772 67.536C186.004 69.456 184.98 71.248 183.7 72.912C182.42 74.512 181.044 75.728 179.572 76.56L171.316 81.36ZM171.316 71.76L187.924 62.16V42L171.316 51.6V71.76ZM187.924 62.16V84.24L179.572 79.44V57.36L187.924 62.16ZM187.924 84.24L162.964 98.64L154.612 93.84L179.572 79.44L187.924 84.24ZM162.964 98.64V108.24L154.612 103.44V93.84L162.964 98.64ZM196.18 27.6L187.924 32.4L179.572 27.6L187.924 22.8L196.18 27.6ZM187.924 32.4V42L179.572 37.2V27.6L187.924 32.4ZM187.924 42V62.16L179.572 57.36V37.2L187.924 42ZM187.924 62.16L171.316 71.76L162.964 66.96L179.572 57.36L187.924 62.16ZM185.428 36.72C183.764 35.76 181.812 35.92 179.572 37.2L171.316 42C169.844 42.832 168.468 44.08 167.188 45.744C165.908 47.344 164.884 49.104 164.116 51.024C163.348 52.88 162.964 54.672 162.964 56.4V76.56C162.964 79.12 163.796 80.88 165.46 81.84L157.108 77.04C155.444 76.08 154.612 74.32 154.612 71.76V51.6C154.612 49.872 154.996 48.08 155.764 46.224C156.532 44.304 157.556 42.544 158.836 40.944C160.116 39.28 161.492 38.032 162.964 37.2L171.316 32.4C173.492 31.12 175.412 30.96 177.076 31.92L185.428 36.72ZM25.7286 224C23.5526 225.28 21.6326 225.44 19.9686 224.48C18.3046 223.52 17.4726 221.76 17.4726 219.2V248L9.12063 252.8V181.76L38.2086 164.96C40.3846 163.68 42.3046 163.52 43.9686 164.48C45.6966 165.44 46.5606 167.2 46.5606 169.76V202.4C46.5606 204.064 46.1446 205.856 45.3126 207.776C44.5446 209.696 43.5206 211.488 42.2406 213.152C41.0246 214.752 39.6806 215.968 38.2086 216.8L25.7286 224ZM38.2086 174.56L17.4726 186.56V219.2L38.2086 207.2V174.56ZM17.4726 219.2C17.4726 221.76 18.3046 223.52 19.9686 224.48L11.6166 219.68C9.95263 218.72 9.12063 216.96 9.12063 214.4L17.4726 219.2ZM38.2086 174.56V207.2L29.8566 202.4V169.76L38.2086 174.56ZM38.2086 207.2L17.4726 219.2L9.12063 214.4L29.8566 202.4L38.2086 207.2ZM44.0646 164.48C42.3366 163.52 40.3846 163.68 38.2086 164.96L9.12063 181.76L0.768625 176.96L29.8566 160.16C32.0966 158.88 34.0486 158.72 35.7126 159.68L44.0646 164.48ZM9.12063 181.76V252.8L0.768625 248V176.96L9.12063 181.76ZM63.2144 204.8L71.5664 200V242.24L88.1744 232.64V190.4L96.4304 185.6V237.44L88.1744 242.24V232.64C88.1744 234.304 87.7904 236.096 87.0224 238.016C86.2544 239.936 85.2304 241.728 83.9504 243.392C82.6704 244.992 81.2944 246.208 79.8224 247.04L71.5664 251.84C69.3264 253.12 67.3744 253.28 65.7104 252.32C64.0464 251.36 63.2144 249.6 63.2144 247.04V204.8ZM88.1744 232.64V242.24L79.8224 237.44V227.84L88.1744 232.64ZM96.4304 185.6L88.1744 190.4L79.8224 185.6L88.1744 180.8L96.4304 185.6ZM88.1744 190.4V232.64L79.8224 227.84V185.6L88.1744 190.4ZM71.5664 200L63.2144 204.8L54.8624 200L63.2144 195.2L71.5664 200ZM88.1744 232.64L71.5664 242.24L63.2144 237.44L79.8224 227.84L88.1744 232.64ZM63.2144 204.8V247.04C63.2144 249.6 64.0464 251.36 65.7104 252.32L57.3584 247.52C55.6944 246.56 54.8624 244.8 54.8624 242.24V200L63.2144 204.8ZM121.441 228.8C119.201 230.08 117.249 230.24 115.585 229.28C113.921 228.32 113.089 226.56 113.089 224V214.4C113.089 212.672 113.473 210.88 114.241 209.024C115.009 207.104 116.033 205.344 117.313 203.744C118.593 202.08 119.969 200.832 121.441 200L146.305 185.6V195.2L121.441 209.6V219.2L138.049 209.6C140.225 208.32 142.145 208.16 143.809 209.12C145.473 210.08 146.305 211.84 146.305 214.4V224C146.305 225.664 145.921 227.456 145.153 229.376C144.385 231.296 143.361 233.088 142.081 234.752C140.865 236.352 139.521 237.568 138.049 238.4L113.089 252.8V243.2L138.049 228.8V219.2L121.441 228.8ZM138.049 219.2V228.8L129.697 224V214.4L138.049 219.2ZM138.049 228.8L113.089 243.2L104.737 238.4L129.697 224L138.049 228.8ZM113.089 243.2V252.8L104.737 248V238.4L113.089 243.2ZM143.809 209.12C142.145 208.16 140.225 208.32 138.049 209.6L121.441 219.2L113.089 214.4L129.697 204.8C131.937 203.52 133.889 203.36 135.553 204.32L143.809 209.12ZM146.305 185.6L121.441 200C119.969 200.832 118.593 202.08 117.313 203.744C116.033 205.344 115.009 207.104 114.241 209.024C113.473 210.88 113.089 212.672 113.089 214.4V224C113.089 226.56 113.921 228.32 115.585 229.28L107.233 224.48C105.569 223.52 104.737 221.76 104.737 219.2V209.6C104.737 207.872 105.121 206.08 105.889 204.224C106.657 202.304 107.681 200.544 108.961 198.944C110.241 197.28 111.617 196.032 113.089 195.2L138.049 180.8L146.305 185.6ZM179.572 191.36L187.924 186.56C190.1 185.28 192.02 185.12 193.684 186.08C195.348 187.04 196.18 188.8 196.18 191.36V233.6L187.924 238.4V196.16L171.316 205.76V248L162.964 252.8V176L171.316 171.2V205.76C171.316 204.032 171.7 202.24 172.468 200.384C173.236 198.464 174.228 196.704 175.444 195.104C176.724 193.44 178.1 192.192 179.572 191.36ZM187.924 196.16V238.4L179.572 233.6V191.36L187.924 196.16ZM193.684 186.08C192.02 185.12 190.1 185.28 187.924 186.56L179.572 191.36C178.1 192.192 176.724 193.44 175.444 195.104C174.228 196.704 173.236 198.464 172.468 200.384C171.7 202.24 171.316 204.032 171.316 205.76L162.964 200.96C162.964 199.232 163.348 197.44 164.116 195.584C164.884 193.664 165.908 191.904 167.188 190.304C168.468 188.64 169.844 187.392 171.316 186.56L179.572 181.76C181.812 180.48 183.764 180.32 185.428 181.28L193.684 186.08ZM171.316 171.2L162.964 176L154.612 171.2L162.964 166.4L171.316 171.2ZM162.964 176V252.8L154.612 248V171.2L162.964 176Z" fill="white"/>
</svg>
